<?xml version="1.0" encoding="UTF-8"?>
<svg width="1500px" height="843px" viewBox="0 0 1500 843" version="1.1" xmlns="http://www.w3.org/2000/svg" xmlns:xlink="http://www.w3.org/1999/xlink">
    <!-- Generator: Sketch 42 (36781) - http://www.bohemiancoding.com/sketch -->
    <title>Rectangle 7</title>
    <desc>Created with Sketch.</desc>
    <defs></defs>
    <g id="首页" stroke="none" stroke-width="1" fill="none" fill-rule="evenodd">
        <g id="Group-34">
            <g transform="translate(-1.000000, 0.000000)">
                <g id="Group-33" transform="translate(0.000000, 149.000000)">
                    <g id="Group-24" transform="translate(0.000000, 32.000000)">
                        <polygon id="Path-3" fill="#CECECE" points="756.070312 505.132812 1501.42188 389.46875 1501.42188 663.612158"></polygon>
                        <path d="M808.2,462.76 L849.8,462.76 C868.2,462.76 882.12,467.88 891.72,478.28 C900.68,487.88 905.16,501.8 905.16,519.88 C905.16,537.8 900.52,551.72 891.4,561.64 C881.8,571.88 867.88,577 849.48,577 L808.2,577 L808.2,462.76 Z M825.64,477.64 L825.64,562.12 L846.28,562.12 C860.68,562.12 871.4,558.6 878.12,551.72 C884.68,544.84 888.04,534.28 888.04,519.88 C888.04,505.16 884.68,494.6 878.28,487.88 C871.56,481 861,477.64 846.6,477.64 L825.64,477.64 Z M955.72,462.76 L975.56,462.76 L1019.56,577 L1000.84,577 L990.12,547.56 L941,547.56 L930.28,577 L911.72,577 L955.72,462.76 Z M946.28,533.16 L984.84,533.16 L965.96,481.48 L965.32,481.48 L946.28,533.16 Z M1023.08,462.76 L1061.48,517.96 L1020.36,577 L1041.64,577 L1072.2,531.72 L1102.76,577 L1124.04,577 L1082.6,517.96 L1121.32,462.76 L1100.04,462.76 L1072.2,504.04 L1044.36,462.76 L1023.08,462.76 Z M1136.36,462.76 L1136.36,577 L1153.64,577 L1153.64,462.76 L1136.36,462.76 Z M1209.16,462.76 L1229,462.76 L1273,577 L1254.28,577 L1243.56,547.56 L1194.44,547.56 L1183.72,577 L1165.16,577 L1209.16,462.76 Z M1199.72,533.16 L1238.28,533.16 L1219.4,481.48 L1218.76,481.48 L1199.72,533.16 Z M1284.2,462.76 L1284.2,577 L1301.64,577 L1301.64,491.08 L1302.28,491.08 L1361.32,577 L1378.28,577 L1378.28,462.76 L1360.84,462.76 L1360.84,547.72 L1360.2,547.72 L1301.8,462.76 L1284.2,462.76 Z M1450.28,460.52 C1433.48,460.52 1420.04,466.28 1410.12,478.12 C1400.68,489.16 1396.04,503.24 1396.04,520.36 C1396.04,537.32 1400.68,551.24 1410.12,561.96 C1420.2,573.48 1434.28,579.24 1452.52,579.24 C1462.44,579.24 1471.56,577.96 1479.88,575.4 C1487.72,572.84 1494.6,569.32 1500.52,564.68 L1500.52,516.68 L1451.56,516.68 L1451.56,531.56 L1483.08,531.56 L1483.08,556.36 C1479.24,558.76 1475.08,560.68 1470.28,561.96 C1465.32,563.24 1460.04,564.04 1454.44,564.04 C1440.2,564.04 1429.64,560.04 1422.92,552.04 C1416.52,544.68 1413.48,534.12 1413.48,520.36 C1413.48,506.28 1416.84,495.24 1423.88,487.24 C1430.44,479.56 1439.24,475.88 1450.28,475.88 C1459.24,475.88 1466.6,477.8 1472.04,481.8 C1477.48,485.64 1481,491.4 1482.6,499.08 L1500.2,499.08 C1498.12,486.28 1493,476.84 1484.84,470.44 C1476.36,463.72 1464.84,460.52 1450.28,460.52 Z" id="DAXIANG" fill="#FFFFFF" opacity="0.25"></path>
                        <g id="Group-32" transform="translate(1.000000, 0.000000)">
                            <g id="线条">
                                <path d="M345.529297,417.677734 L427.515625,380.527344 C427.515625,380.527344 464.191406,358.085938 495.546875,358.085938 C526.902344,358.085938 547.847656,312.375 568.582031,293.597656 C589.316406,274.820312 621.640625,253.378906 632.746094,253.378906 C643.851562,253.378906 715.496094,305.664062 749.066406,314.460938 C782.636719,323.257813 724.074219,187.691406 736.570312,177.929687 C749.066406,168.167969 779.070312,144.378906 800.359375,136.359375 C821.648438,128.339844 860.042969,80.234375 873.351562,67.7421875 C886.660156,55.25 894.863281,49.984375 913.777344,49.984375 C932.691406,49.984375 923.789062,61.234375 941.113281,55.609375 C958.4375,49.984375 968.082031,58.8398438 979.394531,46.1914062 C990.707031,33.5429688 1001.03516,17.109375 1009.17188,17.109375 C1017.30859,17.109375 1055.61328,6.05859375 1073.47656,6.05859375 C1091.33984,6.05859375 1116.31641,6.07226562 1116.31641,6.07226562" id="Path-5" stroke="#5AA6FF" stroke-width="3"></path>
                                <path d="M629.578125,478.740234 L674.03125,445.271484 C674.03125,445.271484 680.814453,438.029297 684.257812,431.416016 C687.701172,424.802734 688.669922,413.447266 710.742188,413.447266 C732.814453,413.447266 735.503906,396.691406 745.28125,391.630859 C755.058594,386.570313 780.515625,384.501953 795.908203,368.107422 C811.300781,351.712891 825.085938,329.103516 836.314453,321.564453 C847.542969,314.025391 858.130859,269.794922 876.601562,259.265625 C895.072266,248.736328 903.21875,247.339844 921.673828,233.439453 C940.128906,219.539063 964.933594,204.042969 964.933594,204.042969 C964.933594,204.042969 1011.14844,195.605469 1011.14844,195.605469 C1011.14844,195.605469 1053.20703,205.511719 1057.95703,200.558594 C1062.70703,195.605469 1108.92578,175.203125 1108.92578,175.203125 C1108.92578,175.203125 1113.90625,166.699219 1072.25,157.242188 C1030.59375,147.785156 994.34375,150.878906 994.34375,133.960938 C994.34375,117.042969 1031.70312,103.773437 1048.57031,96.7734375 C1065.4375,89.7734375 1069.14453,54.5429688 1076.87109,40.7890625 C1084.59766,27.0351562 1089.95703,7.3984375 1105.51172,7.3984375 C1121.06641,7.3984375 1117.33984,7.06445312 1117.33984,7.06445312" id="Path-4" stroke="#FABE00" stroke-width="3"></path>
                                <path d="M1117.03383,6.26171875 C1117.03383,6.26171875 1113.44828,17.1054687 1120.27365,21.9375 C1127.09901,26.7695312 1157.57035,39.9726562 1163.34685,39.9726562 C1169.12335,39.9726562 1185.44285,55.015625 1196.34711,55.015625 C1207.25138,55.015625 1214.57786,64.7929687 1231.75975,71.3789062 C1248.94164,77.9648437 1268.82726,96.7734375 1274.15702,96.7734375 C1279.48679,96.7734375 1292.20908,106.113281 1282.89364,120.050781 C1273.57821,133.988281 1274.4911,156.597656 1290.47652,170.886719 C1306.46193,185.175781 1319.52995,200.789062 1341.49387,207.820312 C1363.45778,214.851562 1390.73204,223.265625 1399.09185,238.050781 C1407.45166,252.835937 1400.91376,265.246094 1391.2759,277.921875 C1381.63803,290.597656 1368.14269,315.925781 1386.22971,330.800781 C1404.31673,345.675781 1500,368.34375 1500,368.34375" id="Path-6" stroke="#CD57E5" stroke-width="2"></path>
                                <path d="M1117.89844,5.58203125 C1117.89844,5.58203125 1164.03779,36.1171875 1189.91871,40.28125 C1215.79964,44.4453125 1220.33404,46.8515625 1237.67636,46.8515625 C1255.01868,46.8515625 1281.53268,38.40625 1301.38356,42.6289062 C1321.23444,46.8515625 1318.42517,46.2109375 1344.6622,46.53125 C1370.89923,46.8515625 1384.52619,14.9257812 1400.96637,14.9257812 C1417.40656,14.9257812 1416.60334,21.8320312 1437.89843,18.3789062 C1459.19351,14.9257812 1485.97261,10.6835938 1497,0.58984375" id="Path-7" stroke="#FFFFFF" stroke-width="2"></path>
                                <path d="M0.060546875,292.943359 C0.060546875,292.943359 32.1367187,272.816406 37.5273438,272.816406 C42.9179688,272.816406 63.515625,260.753906 92.046875,266.785156 C120.578125,272.816406 146.429688,282.617188 176.117187,265.734375 C205.804687,248.851563 196.21875,241.054688 229.820312,235.21875 C263.421875,229.382813 329.523438,154.839844 349.359375,148.863281 C369.195312,142.886719 398.621094,112.609375 407.371094,112.609375 C416.121094,112.609375 433.59375,114.78125 452.386719,113.695312 C471.179688,112.609375 503.871094,94.6640625 511.367187,94.6640625 C518.863281,94.6640625 546.832031,105.335938 565.007812,105.335938 C583.183594,105.335938 584.652344,101.859375 612.636719,101.859375 C640.621094,101.859375 666.746094,99.2578125 690.40625,105.933594 C714.066406,112.609375 734.871094,120.519531 754.609375,120.519531 C774.347656,120.519531 807.082031,112.164062 830.898437,97.6445312 C854.714844,83.125 889.703125,56.96875 889.703125,56.96875" id="Path-8" stroke="#50E3C2" stroke-width="2"></path>
                            </g>
                            <circle id="Oval-3" fill="#FFFFFF" cx="1119.5" cy="5.5" r="5.5"></circle>
                        </g>
                        <polygon id="Path-2" fill="#DDDDDD" points="0.397645831 345.390625 1501.58594 662.34375 1501 1384 1 1384"></polygon>
                        <path d="M177.38,479.4 L181.97,479.4 C180.909995,478.139994 179.720007,477.000005 178.4,475.98 L180.35,473.55 C182.39001,474.330004 184.029994,475.229995 185.27,476.25 L182.45,479.4 L183.17,479.4 L185.9,477.96 L188.93,480.57 L188.93,473.19 L193.13,473.67 L193.13,474.72 L198.98,474.72 L200.87,473.19 L204.47,475.98 L203.45,477.15 L203.45,491.04 L199.19,491.55 L199.19,476.94 L193.13,476.94 L193.13,491.82 L188.93,492.36 L188.93,489.81 L186.86,492.39 C186.359997,491.569996 185.670004,490.700005 184.79,489.78 L184.79,500.58 L180.29,501.09 L180.29,491.55 C179.629997,492.050003 178.940004,492.509998 178.22,492.93 L176.96,491.55 C179.500013,488.449985 181.499993,485.120018 182.96,481.56 L177.92,481.56 L177.38,479.4 Z M188.93,489.06 L188.93,481.08 L187.82,481.92 C187.059996,483.660009 186.170005,485.219993 185.15,486.6 C186.690008,487.360004 187.949995,488.179996 188.93,489.06 Z M194.24,478.98 L198.29,479.64 C198.29,484.620025 198.210001,487.599995 198.05,488.58 C197.909999,489.780006 197.660002,490.879995 197.3,491.88 L199.91,492.24 L199.91,497.04 C199.91,497.360002 200.059998,497.52 200.36,497.52 L201.2,497.52 C201.500001,497.52 201.67,497.340002 201.71,496.98 L202.1,493.41 L203.78,493.68 C203.76,494.120002 203.75,494.489999 203.75,494.79 C203.75,496.69001 204.179996,497.969997 205.04,498.63 C204.559998,500.110007 203.650007,500.85 202.31,500.85 L198.65,500.85 C196.949991,500.85 196.05,499.990009 195.95,498.27 L195.95,494.76 C195.549998,495.380003 195.120002,495.949997 194.66,496.47 C192.61999,498.970013 190.070015,500.479997 187.01,501 L186.02,498.96 C191.500027,496.259987 194.24,492.250027 194.24,486.93 L194.24,478.98 Z M234.3,473.61 L239.1,474.18 L239.1,474.75 L252.27,474.75 L254.34,473.07 L258.3,476.13 L257.25,477.42 L257.25,486.36 L252.78,486.93 C253.060001,487.090001 253.319999,487.229999 253.56,487.35 C255.180008,488.190004 257.319987,488.909997 259.98,489.51 L257.64,493.74 C256.299993,493.359998 255.060006,492.880003 253.92,492.3 L253.92,500.19 L249.12,500.82 L249.12,490.38 L251.19,490.62 C250.889998,490.379999 250.600001,490.140001 250.32,489.9 C248.879993,488.639994 247.810003,487.260008 247.11,485.76 L246.48,485.76 C245.279994,487.520009 243.65001,489.019994 241.59,490.26 L241.05,490.62 L242.55,490.86 C242.55,492.740009 242.450001,493.869998 242.25,494.25 C241.969999,495.930008 241.150007,497.319995 239.79,498.42 C238.309993,499.760007 236.460011,500.559999 234.24,500.82 L233.07,498.48 C236.170015,497.099993 237.73,495.060014 237.75,492.36 C236.389993,492.920003 234.920008,493.389998 233.34,493.77 L232.23,491.79 C235.970019,490.109992 238.729991,488.100012 240.51,485.76 L239.1,485.76 L239.1,486.81 L234.3,487.41 L234.3,473.61 Z M250.83,485.76 C251.350003,486.120002 251.889997,486.449999 252.45,486.75 L252.45,485.76 L250.83,485.76 Z M239.1,483.51 L243.36,483.51 L243.36,481.17 L239.1,481.17 L239.1,483.51 Z M248.01,481.17 L248.01,483.51 L252.45,483.51 L252.45,481.17 L248.01,481.17 Z M239.1,478.95 L243.36,478.95 L243.36,476.91 L239.1,476.91 L239.1,478.95 Z M248.01,476.91 L248.01,478.95 L252.45,478.95 L252.45,476.91 L248.01,476.91 Z M287.98,473.34 L292.66,473.88 L292.66,474.84 L308.62,474.84 L310.81,473.07 L314.95,476.28 L313.66,477.63 L313.66,500.64 L308.92,501.21 L308.92,499.41 L292.66,499.41 L292.66,500.52 L287.98,501.12 L287.98,473.34 Z M292.66,497.07 L308.92,497.07 L308.92,493.23 L306.28,496.59 C304.31999,494.269988 302.770006,491.590015 301.63,488.55 C301.369999,489.090003 301.070002,489.589998 300.73,490.05 C299.129992,492.510012 296.740016,494.539992 293.56,496.14 L292.66,494.85 L292.66,497.07 Z M303.07,484.11 C303.690003,485.770008 304.499995,487.219994 305.5,488.46 C306.560005,489.760007 307.699994,490.829996 308.92,491.67 L308.92,483.03 L307.78,484.11 L303.07,484.11 Z M292.66,493.92 C294.520009,492.279992 295.919995,490.51001 296.86,488.61 C297.580004,487.389994 298.039999,485.890009 298.24,484.11 L293.71,484.11 L293.14,481.74 L298.39,481.74 L298.39,477.78 L303.19,478.44 L303.19,481.74 L304.93,481.74 L306.55,480.42 L308.92,482.58 L308.92,477.3 L292.66,477.3 L292.66,493.92 Z M349.76,473.43 L354.11,474 L354.11,481.71 L355.61,480.45 L357.8,482.37 L357.8,473.31 L362.33,473.94 L362.33,483.96 C363.930008,482.199991 365.209995,480.37001 366.17,478.47 L370.28,481.26 C368.119989,483.740012 365.470016,485.739992 362.33,487.26 L362.33,495.69 C362.33,496.210003 362.839995,496.47 363.86,496.47 C364.900005,496.47 365.529999,496.300002 365.75,495.96 L366.74,491.73 L369.08,492.24 C368.959999,493.280005 368.9,494.059997 368.9,494.58 C368.94,496.140008 369.279997,497.229997 369.92,497.85 C369.619998,499.730009 368.630008,500.67 366.95,500.67 L361.22,500.67 C358.939989,500.509999 357.8,499.590008 357.8,497.91 L357.8,495.48 C354.399983,497.38001 349.65003,498.989993 343.55,500.31 L341.81,495.84 C342.550004,495.76 343.269996,495.670001 343.97,495.57 L343.97,477.21 L348.02,477.72 L348.02,494.91 C348.620003,494.81 349.199997,494.700001 349.76,494.58 L349.76,473.43 Z M357.8,494.43 L357.8,483.15 L356.99,483.99 L354.11,483.99 L354.11,493.5 C355.090005,493.219999 356.009996,492.930002 356.87,492.63 L357.8,494.43 Z M420.24,474.72 L422.04,473.19 L424.95,475.83 L423.48,477.27 L415.95,477.27 C415.109996,478.930008 414.270004,480.369994 413.43,481.59 L413.43,484.8 L415.17,482.91 C418.750018,484.87001 422.049985,487.219986 425.07,489.96 L421.05,493.83 C419.169991,491.129987 416.630016,488.590012 413.43,486.21 L413.43,500.52 L408,501.12 L408,487.29 C405.299986,489.570011 402.090019,491.589991 398.37,493.35 L396.81,490.92 C402.650029,487.179981 406.949986,482.630027 409.71,477.27 L397.86,477.27 L397.23,474.72 L420.24,474.72 Z M453.01,473.28 L457.72,473.82 L457.72,474.9 L473.62,474.9 L475.99,472.83 L480.61,476.25 L478.96,477.75 L478.96,497.82 C478.96,500.120012 477.96001,501.27 475.96,501.27 L473.26,501.27 C473.26,499.20999 472.090012,498.18 469.75,498.18 L469.78,496.32 C471.100007,496.38 472.349994,496.41 473.53,496.41 C473.970002,496.41 474.19,496.100003 474.19,495.48 L474.19,477.3 L457.72,477.3 L457.72,500.85 L453.01,501.45 L453.01,473.28 Z M469.06,479.34 L470.83,477.66 L473.68,480.24 L472.48,481.5 L458.8,481.5 L458.26,479.34 L469.06,479.34 Z M459.46,483 L464.08,483.54 L464.08,484.5 L467.38,484.5 L469.48,482.49 L473.53,485.61 L472.09,486.9 L472.09,495.63 L467.47,496.2 L467.47,494.43 L464.08,494.43 L464.08,496.11 L459.46,496.71 L459.46,483 Z M464.08,492.09 L467.47,492.09 L467.47,486.9 L464.08,486.9 L464.08,492.09 Z" id="视界因此不同" fill="#FFFFFF"></path>
                        <path d="M178.52,514.296 L187.916,514.296 C192.092,514.296 195.224,515.448 197.384,517.752 C199.436,519.912 200.48,523.044 200.48,527.148 C200.48,531.216 199.436,534.348 197.384,536.544 C195.224,538.848 192.092,540 187.916,540 L178.52,540 L178.52,514.296 Z M182.732,517.896 L182.732,536.4 L187.124,536.4 C190.328,536.4 192.668,535.644 194.144,534.168 C195.584,532.656 196.304,530.316 196.304,527.148 C196.304,523.908 195.584,521.532 194.144,520.092 C192.668,518.616 190.328,517.896 187.124,517.896 L182.732,517.896 Z M204.44,514.296 L204.44,540 L208.652,540 L208.652,514.296 L204.44,514.296 Z M213.692,514.296 L213.692,540 L217.904,540 L217.904,528.624 L230.468,528.624 L230.468,525.024 L217.904,525.024 L217.904,517.896 L231.224,517.896 L231.224,514.296 L213.692,514.296 Z M234.644,514.296 L234.644,540 L238.856,540 L238.856,528.624 L251.42,528.624 L251.42,525.024 L238.856,525.024 L238.856,517.896 L252.176,517.896 L252.176,514.296 L234.644,514.296 Z M255.596,514.296 L255.596,540 L274.748,540 L274.748,536.4 L259.808,536.4 L259.808,528.624 L273.272,528.624 L273.272,525.024 L259.808,525.024 L259.808,517.896 L274.136,517.896 L274.136,514.296 L255.596,514.296 Z M278.708,514.296 L290.156,514.296 C292.784,514.296 294.872,514.872 296.384,516.06 C297.968,517.356 298.796,519.228 298.796,521.676 C298.796,523.008 298.436,524.196 297.716,525.24 C296.924,526.392 295.808,527.148 294.44,527.508 L294.44,527.58 C296.672,528.084 297.932,529.56 298.22,532.08 L298.652,536.22 C298.796,537.804 299.336,539.064 300.2,540 L295.628,540 C295.016,539.208 294.656,538.092 294.512,536.652 L294.188,533.484 C294.044,532.08 293.612,531.072 292.892,530.46 C292.136,529.812 291.02,529.524 289.58,529.524 L282.92,529.524 L282.92,540 L278.708,540 L278.708,514.296 Z M282.92,517.896 L282.92,525.924 L289.58,525.924 C291.236,525.924 292.496,525.564 293.36,524.88 C294.152,524.16 294.548,523.152 294.548,521.856 C294.548,520.452 294.152,519.444 293.36,518.832 C292.568,518.184 291.308,517.896 289.58,517.896 L282.92,517.896 Z M303.8,514.296 L303.8,540 L322.952,540 L322.952,536.4 L308.012,536.4 L308.012,528.624 L321.476,528.624 L321.476,525.024 L308.012,525.024 L308.012,517.896 L322.34,517.896 L322.34,514.296 L303.8,514.296 Z M326.912,514.296 L338.36,514.296 C340.988,514.296 343.076,514.872 344.588,516.06 C346.172,517.356 347,519.228 347,521.676 C347,523.008 346.64,524.196 345.92,525.24 C345.128,526.392 344.012,527.148 342.644,527.508 L342.644,527.58 C344.876,528.084 346.136,529.56 346.424,532.08 L346.856,536.22 C347,537.804 347.54,539.064 348.404,540 L343.832,540 C343.22,539.208 342.86,538.092 342.716,536.652 L342.392,533.484 C342.248,532.08 341.816,531.072 341.096,530.46 C340.34,529.812 339.224,529.524 337.784,529.524 L331.124,529.524 L331.124,540 L326.912,540 L326.912,514.296 Z M331.124,517.896 L331.124,525.924 L337.784,525.924 C339.44,525.924 340.7,525.564 341.564,524.88 C342.356,524.16 342.752,523.152 342.752,521.856 C342.752,520.452 342.356,519.444 341.564,518.832 C340.772,518.184 339.512,517.896 337.784,517.896 L331.124,517.896 Z M352.004,514.296 L352.004,540 L356.216,540 L356.216,521.208 L356.36,521.208 L369.212,540 L373.316,540 L373.316,514.296 L369.068,514.296 L369.068,532.836 L368.924,532.836 L356.216,514.296 L352.004,514.296 Z M376.376,514.296 L376.376,517.896 L384.8,517.896 L384.8,540 L389.012,540 L389.012,517.896 L397.436,517.896 L397.436,514.296 L376.376,514.296 Z M410.144,514.296 L419.288,540 L424.364,540 L433.508,514.296 L428.936,514.296 L421.88,535.248 L421.772,535.248 L414.716,514.296 L410.144,514.296 Z M436.208,514.296 L436.208,540 L440.42,540 L440.42,514.296 L436.208,514.296 Z M454.532,513.792 C451.76,513.792 449.492,514.404 447.692,515.664 C445.748,516.96 444.812,518.76 444.812,521.028 C444.812,523.296 445.784,525.024 447.764,526.212 C448.52,526.644 450.5,527.364 453.668,528.372 C456.512,529.236 458.168,529.812 458.672,530.064 C460.256,530.856 461.084,531.936 461.084,533.304 C461.084,534.384 460.508,535.212 459.428,535.86 C458.348,536.472 456.836,536.796 454.964,536.796 C452.84,536.796 451.292,536.4 450.284,535.68 C449.168,534.852 448.484,533.448 448.196,531.504 L444.02,531.504 C444.2,534.78 445.388,537.156 447.548,538.668 C449.312,539.892 451.796,540.504 454.964,540.504 C458.24,540.504 460.796,539.82 462.596,538.524 C464.396,537.192 465.296,535.356 465.296,533.052 C465.296,530.676 464.18,528.84 461.948,527.508 C460.94,526.932 458.708,526.068 455.216,524.988 C452.84,524.232 451.364,523.692 450.824,523.404 C449.6,522.756 449.024,521.856 449.024,520.776 C449.024,519.552 449.528,518.652 450.608,518.112 C451.472,517.644 452.696,517.428 454.316,517.428 C456.188,517.428 457.628,517.752 458.564,518.472 C459.5,519.156 460.184,520.308 460.544,521.892 L464.72,521.892 C464.468,519.084 463.424,516.996 461.624,515.664 C459.932,514.404 457.556,513.792 454.532,513.792 Z M468.896,514.296 L468.896,540 L473.108,540 L473.108,514.296 L468.896,514.296 Z M489.56,513.792 C493.484,513.792 496.58,515.052 498.848,517.608 C501.008,520.02 502.088,523.224 502.088,527.184 C502.088,531.144 501.008,534.312 498.848,536.724 C496.58,539.244 493.484,540.504 489.56,540.504 C485.6,540.504 482.504,539.208 480.272,536.688 C478.112,534.24 477.068,531.072 477.068,527.184 C477.068,523.26 478.112,520.092 480.272,517.644 C482.504,515.052 485.6,513.792 489.56,513.792 Z M489.56,517.5 C486.896,517.5 484.844,518.4 483.368,520.2 C481.964,521.928 481.28,524.232 481.28,527.184 C481.28,530.1 481.964,532.404 483.368,534.132 C484.808,535.896 486.896,536.796 489.56,536.796 C492.224,536.796 494.276,535.932 495.716,534.24 C497.12,532.548 497.84,530.208 497.84,527.184 C497.84,524.16 497.12,521.784 495.716,520.056 C494.276,518.328 492.224,517.5 489.56,517.5 Z M506.048,514.296 L506.048,540 L510.26,540 L510.26,521.208 L510.404,521.208 L523.256,540 L527.36,540 L527.36,514.296 L523.112,514.296 L523.112,532.836 L522.968,532.836 L510.26,514.296 L506.048,514.296 Z M176.18,549.296 L183.56,575 L188.06,575 L193.1,555.668 L193.244,555.668 L198.248,575 L202.712,575 L210.128,549.296 L205.376,549.296 L200.552,568.844 L200.408,568.844 L195.332,549.296 L190.976,549.296 L185.9,568.844 L185.756,568.844 L180.932,549.296 L176.18,549.296 Z M224.24,548.792 C228.164,548.792 231.26,550.052 233.528,552.608 C235.688,555.02 236.768,558.224 236.768,562.184 C236.768,566.144 235.688,569.312 233.528,571.724 C231.26,574.244 228.164,575.504 224.24,575.504 C220.28,575.504 217.184,574.208 214.952,571.688 C212.792,569.24 211.748,566.072 211.748,562.184 C211.748,558.26 212.792,555.092 214.952,552.644 C217.184,550.052 220.28,548.792 224.24,548.792 Z M224.24,552.5 C221.576,552.5 219.524,553.4 218.048,555.2 C216.644,556.928 215.96,559.232 215.96,562.184 C215.96,565.1 216.644,567.404 218.048,569.132 C219.488,570.896 221.576,571.796 224.24,571.796 C226.904,571.796 228.956,570.932 230.396,569.24 C231.8,567.548 232.52,565.208 232.52,562.184 C232.52,559.16 231.8,556.784 230.396,555.056 C228.956,553.328 226.904,552.5 224.24,552.5 Z M240.728,549.296 L240.728,575 L244.94,575 L244.94,556.208 L245.084,556.208 L257.936,575 L262.04,575 L262.04,549.296 L257.792,549.296 L257.792,567.836 L257.648,567.836 L244.94,549.296 L240.728,549.296 Z M267.08,549.296 L276.476,549.296 C280.652,549.296 283.784,550.448 285.944,552.752 C287.996,554.912 289.04,558.044 289.04,562.148 C289.04,566.216 287.996,569.348 285.944,571.544 C283.784,573.848 280.652,575 276.476,575 L267.08,575 L267.08,549.296 Z M271.292,552.896 L271.292,571.4 L275.684,571.4 C278.888,571.4 281.228,570.644 282.704,569.168 C284.144,567.656 284.864,565.316 284.864,562.148 C284.864,558.908 284.144,556.532 282.704,555.092 C281.228,553.616 278.888,552.896 275.684,552.896 L271.292,552.896 Z M293,549.296 L293,575 L312.152,575 L312.152,571.4 L297.212,571.4 L297.212,563.624 L310.676,563.624 L310.676,560.024 L297.212,560.024 L297.212,552.896 L311.54,552.896 L311.54,549.296 L293,549.296 Z M316.112,549.296 L327.56,549.296 C330.188,549.296 332.276,549.872 333.788,551.06 C335.372,552.356 336.2,554.228 336.2,556.676 C336.2,558.008 335.84,559.196 335.12,560.24 C334.328,561.392 333.212,562.148 331.844,562.508 L331.844,562.58 C334.076,563.084 335.336,564.56 335.624,567.08 L336.056,571.22 C336.2,572.804 336.74,574.064 337.604,575 L333.032,575 C332.42,574.208 332.06,573.092 331.916,571.652 L331.592,568.484 C331.448,567.08 331.016,566.072 330.296,565.46 C329.54,564.812 328.424,564.524 326.984,564.524 L320.324,564.524 L320.324,575 L316.112,575 L316.112,549.296 Z M320.324,552.896 L320.324,560.924 L326.984,560.924 C328.64,560.924 329.9,560.564 330.764,559.88 C331.556,559.16 331.952,558.152 331.952,556.856 C331.952,555.452 331.556,554.444 330.764,553.832 C329.972,553.184 328.712,552.896 326.984,552.896 L320.324,552.896 Z M341.204,549.296 L341.204,575 L345.416,575 L345.416,563.624 L357.98,563.624 L357.98,560.024 L345.416,560.024 L345.416,552.896 L358.736,552.896 L358.736,549.296 L341.204,549.296 Z M362.156,549.296 L362.156,565.244 C362.156,568.592 363.092,571.148 365,572.948 C366.8,574.64 369.428,575.504 372.848,575.504 C376.232,575.504 378.86,574.64 380.732,572.912 C382.604,571.148 383.54,568.592 383.54,565.244 L383.54,549.296 L379.328,549.296 L379.328,565.316 C379.328,567.548 378.788,569.168 377.78,570.248 C376.736,571.292 375.08,571.832 372.848,571.832 C370.58,571.832 368.924,571.292 367.916,570.248 C366.872,569.168 366.368,567.548 366.368,565.316 L366.368,549.296 L362.156,549.296 Z M388.58,549.296 L388.58,575 L406.652,575 L406.652,571.4 L392.756,571.4 L392.756,549.296 L388.58,549.296 Z M421.88,549.296 L421.88,575 L439.952,575 L439.952,571.4 L426.056,571.4 L426.056,549.296 L421.88,549.296 Z M443.192,549.296 L443.192,575 L447.404,575 L447.404,549.296 L443.192,549.296 Z M452.444,549.296 L452.444,575 L456.656,575 L456.656,563.624 L469.22,563.624 L469.22,560.024 L456.656,560.024 L456.656,552.896 L469.976,552.896 L469.976,549.296 L452.444,549.296 Z M473.396,549.296 L473.396,575 L492.548,575 L492.548,571.4 L477.608,571.4 L477.608,563.624 L491.072,563.624 L491.072,560.024 L477.608,560.024 L477.608,552.896 L491.936,552.896 L491.936,549.296 L473.396,549.296 Z" id="DIFFERERNT-VISION-WO" fill="#FFFFFF"></path>
                    </g>
                    <text id="FUTURE..." font-family="PingFangSC-Medium, PingFang SC" font-size="18" font-weight="400" fill="#FFFFFF">
                        <tspan x="1126" y="19">FUTURE...</tspan>
                    </text>
                </g>
                <rect id="Rectangle-7" x="1" y="0" width="1500" height="843"></rect>
            </g>
        </g>
    </g>
</svg>