<?xml version="1.0" encoding="UTF-8"?>
<svg width="1920px" height="640px" viewBox="0 0 1920 640" version="1.1" xmlns="http://www.w3.org/2000/svg" xmlns:xlink="http://www.w3.org/1999/xlink">
    <!-- Generator: Sketch 43.2 (39069) - http://www.bohemiancoding.com/sketch -->
    <title>nihaoya</title>
    <desc>Created with Sketch.</desc>
    <defs>
        <rect id="path-1" x="0" y="0" width="1920" height="640"></rect>
    </defs>
    <g id="Page-1" stroke="none" stroke-width="1" fill="none" fill-rule="evenodd">
        <g id="官网--copy-3" transform="translate(0.000000, -60.000000)">
            <g id="nihaoya" transform="translate(0.000000, 60.000000)">
                <g>
                    <mask id="mask-2" fill="white">
                        <use xlink:href="#path-1"></use>
                    </mask>
                    <use id="Mask" fill="#1F1F1F" xlink:href="#path-1"></use>
                    <g id="Page-1" opacity="0.0800000057" mask="url(#mask-2)">
                        <g transform="translate(141.000000, 433.000000)">
                            <path d="M506.125686,253.096018 L506.078646,253.849526 L709.951316,209.345453 L710.186518,209.251265 L710.60988,208.30938 L533.456102,28.9273577 L531.856732,27.8912841 L506.125686,253.096018 Z M532.750497,29.8692429 L709.104591,208.356474 L507.395775,252.436698 L532.750497,29.8692429 Z" id="Fill-1" fill="#FFFFFF"></path>
                            <path d="M335.468174,207.744249 L334.715529,208.450663 L506.600793,253.755337 L507.212317,253.849526 L532.896322,28.9273577 L532.896322,28.4564152 L531.955516,28.2209439 L335.468174,207.744249 Z M336.973463,207.885532 L531.579194,30.0105256 L506.318552,252.483792 L424.609547,231.008811 L424.609547,230.867529 L424.045063,230.867529 L336.973463,207.885532 Z" id="Fill-2" fill="#FFFFFF"></path>
                            <path d="M1244.00457,389.490403 L1244.19273,390.196816 L1520.83675,323.888104 L1521.63644,323.511349 L1190.56679,161.460014 L1189.24966,160.329752 L1244.00457,389.490403 Z M1191.22535,163.390878 L1519.6137,323.275878 L1244.8513,388.501423 L1191.22535,163.390878 Z" id="Fill-8" fill="#FFFFFF"></path>
                            <path d="M1189.82826,162.806909 L976.406404,320.666856 L1243.73644,388.576774 L1189.82826,162.806909 Z M973.819188,321.137799 L974.807034,320.478479 L1190.5809,160.876045 L1190.76906,161.723742 L1245.28877,390.130884 L1244.34797,389.895413 L973.819188,321.137799 Z" id="Fill-9" fill="#FFFFFF"></path>
                            <path d="M1189.02582,164.332859 L1188.08502,164.709613 L1569.24875,326.855138 L1570.18955,327.561551 L1569.06059,325.206839 L1190.29591,165.086367 L1423.89805,130.3779 L1565.29736,317.436286 L1425.07406,129.671487 L1424.50958,128.917978 L1189.02582,164.332859 Z M1568.84824,325.688531 L1568.89528,325.688531 L1565.08502,317.917978 L1568.84824,325.688531 Z" id="Fill-16" fill="#FFFFFF"></path>
                            <path d="M936.4833,126.473691 L711.771776,208.794451 L974.397783,319.936895 L936.4833,126.473691 Z M708.667116,208.700262 L710.031285,208.135131 L937.330025,124.966675 L937.424106,125.5789 L975.856033,321.86776 L974.868186,321.443912 L708.667116,208.700262 Z" id="Fill-17" fill="#FFFFFF"></path>
                            <path d="M1188.72751,162.208812 L937.626379,126.370083 L975.493822,319.927477 L1188.72751,162.208812 Z M936.21517,125.051444 L936.967815,125.192727 L1191.64401,161.455304 L1190.51504,162.350095 L974.694137,321.95253 L974.553016,321.057739 L936.21517,125.051444 Z" id="Fill-25" fill="#FFFFFF"></path>
                            <g id="Group-230" stroke-width="1" fill="none" transform="translate(102.715365, 0.719909)">
                                <path d="M241.304736,206.925442 C241.304736,210.834265 238.200076,214.036675 234.20165,214.036675 C230.203224,214.036675 227.004484,210.834265 227.004484,206.925442 C227.004484,202.92243 230.203224,199.767115 234.20165,199.767115 C238.200076,199.767115 241.304736,202.92243 241.304736,206.925442" id="Fill-30" fill="#FFFFFF"></path>
                                <path d="M615.011713,208.215825 C615.011713,212.171742 611.860013,215.327057 607.908627,215.327057 C603.910202,215.327057 600.758501,212.171742 600.758501,208.215825 C600.758501,204.212813 603.910202,201.057498 607.908627,201.057498 C611.860013,201.057498 615.011713,204.212813 615.011713,208.215825" id="Fill-70" fill="#FFFFFF"></path>
                                <path d="M842.221077,125.570114 C842.221077,129.478938 839.069377,132.681347 835.117991,132.681347 C831.119565,132.681347 827.967865,129.478938 827.967865,125.570114 C827.967865,121.614197 831.119565,118.458882 835.117991,118.458882 C839.069377,118.458882 842.221077,121.614197 842.221077,125.570114" id="Fill-86" fill="#FFFFFF"></path>
                                <path d="M1094.32417,162.223574 C1094.32417,166.179492 1091.17247,169.334807 1087.17404,169.334807 C1083.17562,169.334807 1080.02392,166.179492 1080.02392,162.223574 C1080.02392,158.267657 1083.17562,155.112341 1087.17404,155.112341 C1091.17247,155.112341 1094.32417,158.267657 1094.32417,162.223574" id="Fill-88" fill="#FFFFFF"></path>
                                <path d="M1328.40808,129.326826 C1328.40808,133.329838 1325.30342,136.438059 1321.30499,136.438059 C1317.30657,136.438059 1314.10783,133.329838 1314.10783,129.326826 C1314.10783,125.418003 1317.30657,122.215593 1321.30499,122.215593 C1325.30342,122.215593 1328.40808,125.418003 1328.40808,129.326826" id="Fill-90" fill="#FFFFFF"></path>
                                <path d="M129.40056,208.488971 L15.0926259,80.5338772 L92.3798426,307.010156 L129.40056,208.488971 Z M12.2702078,75.6831688 L130.717689,208.2535 L130.576568,208.536066 L92.3798426,310.259659 L91.8153589,308.846832 L12.2702078,75.6831688 Z" id="Fill-116" fill="#FFFFFF"></path>
                                <path d="M367.542091,7.88156804 L14.786864,78.4287639 L130.129685,207.608309 L367.542091,7.88156804 Z M12.6230101,77.6752558 L13.5638161,77.533973 L371.587557,5.90360928 L369.941146,7.26934271 L129.988564,209.115325 L129.612242,208.691477 L12.6230101,77.6752558 Z" id="Fill-118" fill="#FFFFFF"></path>
                                <path d="M582.807922,78.7960991 L133.714156,207.881456 L392.906222,214.474651 L393.423665,213.90952 L393.894068,214.474651 L618.135189,219.984679 L582.807922,78.7960991 Z M126.46995,208.870435 L129.950932,207.834361 L583.654647,77.4303657 L583.795768,77.9954968 L619.593438,221.162036 L618.887834,221.162036 L393.423665,215.463631 L393.329584,215.510725 L393.141423,215.510725 L126.46995,208.870435 Z" id="Fill-122" fill="#FFFFFF"></path>
                                <path d="M650.564773,104.78271 L584.049786,79.0221515 L618.85961,218.374056 L650.564773,104.78271 Z M582.450416,77.2325698 L583.438262,77.5622296 L651.834861,104.12339 L651.740781,104.547238 L618.765529,222.753822 L618.295126,220.728769 L582.450416,77.2325698 Z" id="Fill-126" fill="#FFFFFF"></path>
                                <path d="M651.57614,105.197139 L619.635775,219.824559 L818.851455,169.998836 L651.57614,105.197139 Z M618.083445,221.378669 L618.271606,220.38969 L650.823495,103.690123 L651.435019,103.925594 L822.473558,170.234307 L820.780107,170.658155 L618.083445,221.378669 Z" id="Fill-128" fill="#FFFFFF"></path>
                                <path d="M369.795321,7.42004433 L132.382916,207.099691 L581.382601,78.0614287 L369.795321,7.42004433 Z M127.631845,209.642781 L129.701618,207.900293 L369.6542,6.19559367 L585.145825,78.1556172 L583.405334,78.6736541 L127.631845,209.642781 Z" id="Fill-140" fill="#FFFFFF"></path>
                                <path d="M666.553772,47.3842302 L584.797727,78.042591 L650.842311,103.661866 L666.553772,47.3842302 Z M581.646026,78.042591 L583.057236,77.5716485 L668.200183,45.5475542 L667.917941,46.5365336 L651.594956,105.215977 L581.646026,78.042591 Z" id="Fill-142" fill="#FFFFFF"></path>
                                <path d="M1232.82963,76.8652346 L1048.28463,114.280091 L1269.19179,188.101868 L1232.82963,76.8652346 Z M1041.75193,113.928414 L1045.79739,113.174906 L1233.39412,75.5936897 L1233.62932,75.9233495 L1270.69708,188.57281 L1270.69708,189.279224 L1041.75193,113.928414 Z" id="Fill-144" fill="#FFFFFF"></path>
                                <path d="M1275.48578,95.9431178 L1233.99623,76.6344728 L1269.5587,186.458278 L1275.48578,95.9431178 Z M1232.25574,75.7867761 L1232.96135,75.6454934 L1276.61475,94.5773844 L1270.68767,190.696761 L1269.60574,188.90718 L1232.25574,75.7867761 Z" id="Fill-146" fill="#FFFFFF"></path>
                                <path d="M1269.5587,189.283934 L1047.05807,114.309878 L1262.5497,437.988701 L1269.5587,189.283934 Z M1044.84718,113.085427 L1045.97615,113.132521 L1270.68767,188.200766 L1263.67866,439.213152 L1265.23099,440.013754 L1263.67866,440.107943 L1263.67866,441.614959 L1262.40858,439.825377 L1044.84718,113.085427 Z" id="Fill-148" fill="#FFFFFF"></path>
                                <path d="M820.488457,170.686412 L621.272777,220.559229 L937.854011,292.943101 L1044.82366,114.550058 L821.288142,170.498035 L821.288142,171.43992 L820.488457,170.686412 Z M616.474666,220.653418 L618.732601,220.041192 L820.770699,169.509056 L1047.08159,112.760477 L1046.37599,113.937833 L938.465535,294.214646 L937.995132,294.120458 L616.474666,220.653418 Z" id="Fill-152" fill="#FFFFFF"></path>
                                <path d="M1045.95263,114.761983 L938.982979,293.249214 L1261.39721,438.111146 L1045.95263,114.761983 Z M937.289528,293.908533 L937.61881,293.249214 L1045.95263,112.642741 L1046.37599,113.396249 L1264.45483,440.748424 L937.995132,294.144005 L937.289528,293.908533 Z" id="Fill-158" fill="#FFFFFF"></path>
                                <path d="M376.22573,7.14218822 C376.22573,11.0039172 373.168111,14.1121381 369.216725,14.1121381 C365.31238,14.1121381 362.20772,11.0039172 362.20772,7.14218822 C362.20772,3.23336495 365.31238,0.125144035 369.216725,0.125144035 C373.168111,0.125144035 376.22573,3.23336495 376.22573,7.14218822" id="Fill-166" fill="#FFFFFF"></path>
                                <path d="M139.001486,209.134163 C139.001486,212.995892 135.896826,216.104113 131.992481,216.104113 C128.041096,216.104113 124.936436,212.995892 124.936436,209.134163 C124.936436,205.225339 128.041096,202.117119 131.992481,202.117119 C135.896826,202.117119 139.001486,205.225339 139.001486,209.134163" id="Fill-168" fill="#FFFFFF"></path>
                                <path d="M20.5775252,77.5575202 C20.5775252,81.4663434 17.4728652,84.5745644 13.5214798,84.5745644 C9.61713476,84.5745644 6.55951511,81.4663434 6.55951511,77.5575202 C6.55951511,73.6957912 9.61713476,70.5875703 13.5214798,70.5875703 C17.4728652,70.5875703 20.5775252,73.6957912 20.5775252,77.5575202" id="Fill-174" fill="#FFFFFF"></path>
                                <path d="M591.077607,79.026861 C591.077607,82.9356842 587.972947,86.0439052 584.068602,86.0439052 C580.164257,86.0439052 577.012557,82.9356842 577.012557,79.026861 C577.012557,75.1180377 580.164257,72.0098168 584.068602,72.0098168 C587.972947,72.0098168 591.077607,75.1180377 591.077607,79.026861" id="Fill-210" fill="#FFFFFF"></path>
                                <path d="M674.776417,45.2696981 C674.776417,49.1785214 671.718797,52.2867423 667.814452,52.2867423 C663.863067,52.2867423 660.758407,49.1785214 660.758407,45.2696981 C660.758407,41.3608748 663.863067,38.2526539 667.814452,38.2526539 C671.718797,38.2526539 674.776417,41.3608748 674.776417,45.2696981" id="Fill-212" fill="#FFFFFF"></path>
                                <path d="M827.793816,169.490218 C827.793816,173.351947 824.736196,176.460168 820.784811,176.460168 C816.880466,176.460168 813.775806,173.351947 813.775806,169.490218 C813.775806,165.581395 816.880466,162.473174 820.784811,162.473174 C824.736196,162.473174 827.793816,165.581395 827.793816,169.490218" id="Fill-214" fill="#FFFFFF"></path>
                                <path d="M1053.3944,113.014786 C1053.3944,116.876515 1050.33678,119.984736 1046.3854,119.984736 C1042.48105,119.984736 1039.37639,116.876515 1039.37639,113.014786 C1039.37639,109.105962 1042.48105,105.997742 1046.3854,105.997742 C1050.33678,105.997742 1053.3944,109.105962 1053.3944,113.014786 L1057.28463,112.280091" id="Fill-216" fill="#FFFFFF"></path>
                                <path d="M1276.63356,188.916599 C1276.63356,192.778328 1273.57594,195.886548 1269.62456,195.886548 C1265.72021,195.886548 1262.61555,192.778328 1262.61555,188.916599 C1262.61555,185.007775 1265.72021,181.899554 1269.62456,181.899554 C1273.57594,181.899554 1276.63356,185.007775 1276.63356,188.916599" id="Fill-218" fill="#FFFFFF"></path>
                                <path d="M1281.91619,94.5632561 C1281.91619,97.4831 1279.56418,99.8378128 1276.64768,99.8378128 C1273.68414,99.8378128 1271.33212,97.4831 1271.33212,94.5632561 C1271.33212,91.6434122 1273.68414,89.2886994 1276.64768,89.2886994 C1279.56418,89.2886994 1281.91619,91.6434122 1281.91619,94.5632561" id="Fill-220" fill="#FFFFFF"></path>
                                <path d="M1240.40783,75.5795614 C1240.40783,79.4883847 1237.35021,82.5966056 1233.39882,82.5966056 C1229.49448,82.5966056 1226.38982,79.4883847 1226.38982,75.5795614 C1226.38982,71.7178324 1229.49448,68.6096115 1233.39882,68.6096115 C1237.35021,68.6096115 1240.40783,71.7178324 1240.40783,75.5795614" id="Fill-222" fill="#FFFFFF"></path>
                            </g>
                        </g>
                    </g>
                </g>
            </g>
        </g>
    </g>
</svg>